<?xml version="1.0" encoding="UTF-8" standalone="no"?>
<!DOCTYPE svg PUBLIC "-//W3C//DTD SVG 1.1//EN"
 "http://www.w3.org/Graphics/SVG/1.1/DTD/svg11.dtd">
<!-- Generated by graphviz version 2.40.1 (20161225.0304)
 -->
<!-- Title: G Pages: 1 -->
<svg width="233pt" height="303pt"
 viewBox="0.00 0.00 233.21 302.75" xmlns="http://www.w3.org/2000/svg" xmlns:xlink="http://www.w3.org/1999/xlink">
<g id="graph0" class="graph" transform="scale(1 1) rotate(0) translate(4 298.7512)">
<title>G</title>
<polygon fill="#ffffff" stroke="transparent" points="-4,4 -4,-298.7512 229.2109,-298.7512 229.2109,4 -4,4"/>
<!-- 0 -->
<g id="node1" class="node">
<title>0</title>
<ellipse fill="none" stroke="#000000" cx="61.1524" cy="-208.5691" rx="30.5947" ry="18"/>
<text text-anchor="middle" x="61.1524" y="-204.8691" font-family="Times,serif" font-size="14.00" fill="#000000">O | O</text>
</g>
<!-- 1 -->
<g id="node2" class="node">
<title>1</title>
<ellipse fill="none" stroke="#000000" cx="101.802" cy="-139.4899" rx="29.4969" ry="18"/>
<text text-anchor="middle" x="101.802" y="-135.7899" font-family="Times,serif" font-size="14.00" fill="#000000">C | C</text>
</g>
<!-- 1&#45;&#45;0 -->
<g id="edge1" class="edge">
<title>1&#45;&#45;0</title>
<path fill="none" stroke="#000000" d="M91.7538,-156.5656C85.5469,-167.1134 77.6049,-180.6099 71.3674,-191.2099"/>
<text text-anchor="middle" x="71.5606" y="-177.6878" font-family="Times,serif" font-size="14.00" fill="#000000">&#45; | &#45;</text>
</g>
<!-- 2 -->
<g id="node3" class="node">
<title>2</title>
<ellipse fill="none" stroke="#000000" cx="130.3154" cy="-62.2787" rx="29.4969" ry="18"/>
<text text-anchor="middle" x="130.3154" y="-58.5787" font-family="Times,serif" font-size="14.00" fill="#000000">C | C</text>
</g>
<!-- 2&#45;&#45;1 -->
<g id="edge2" class="edge">
<title>2&#45;&#45;1</title>
<path fill="none" stroke="#000000" d="M123.7022,-80.1866C119.0958,-92.6602 112.9779,-109.2268 108.3794,-121.6791"/>
<text text-anchor="middle" x="104.0408" y="-104.7329" font-family="Times,serif" font-size="14.00" fill="#000000">&#45; | =</text>
</g>
<!-- 3 -->
<g id="node4" class="node">
<title>3</title>
<ellipse fill="none" stroke="#000000" cx="62.7045" cy="-18" rx="30.5947" ry="18"/>
<text text-anchor="middle" x="62.7045" y="-14.3" font-family="Times,serif" font-size="14.00" fill="#000000">O | O</text>
</g>
<!-- 3&#45;&#45;2 -->
<g id="edge3" class="edge">
<title>3&#45;&#45;2</title>
<path fill="none" stroke="#000000" d="M83.3573,-31.5257C91.9009,-37.1209 101.7722,-43.5857 110.2529,-49.1397"/>
<text text-anchor="middle" x="84.8051" y="-44.1327" font-family="Times,serif" font-size="14.00" fill="#000000">= | &#45;</text>
</g>
<!-- 4 -->
<g id="node5" class="node">
<title>4</title>
<ellipse fill="none" stroke="#000000" cx="30.5473" cy="-276.7512" rx="30.5947" ry="18"/>
<text text-anchor="middle" x="30.5473" y="-273.0512" font-family="Times,serif" font-size="14.00" fill="#000000">H | H</text>
</g>
<!-- 4&#45;&#45;0 -->
<g id="edge4" class="edge">
<title>4&#45;&#45;0</title>
<path fill="none" stroke="#000000" d="M38.4289,-259.1926C42.9629,-249.0916 48.6438,-236.4358 53.1911,-226.3051"/>
<text text-anchor="middle" x="35.81" y="-246.5488" font-family="Times,serif" font-size="14.00" fill="#000000">&#45; | &#45;</text>
</g>
<!-- 5 -->
<g id="node6" class="node">
<title>5</title>
<ellipse fill="none" stroke="#000000" cx="172.9865" cy="-179.757" rx="30.5947" ry="18"/>
<text text-anchor="middle" x="172.9865" y="-176.057" font-family="Times,serif" font-size="14.00" fill="#000000">H | H</text>
</g>
<!-- 5&#45;&#45;1 -->
<g id="edge5" class="edge">
<title>5&#45;&#45;1</title>
<path fill="none" stroke="#000000" d="M150.8535,-167.237C142.2011,-162.3426 132.3042,-156.7442 123.6768,-151.8639"/>
<text text-anchor="middle" x="127.2651" y="-163.3504" font-family="Times,serif" font-size="14.00" fill="#000000">&#45; | &#45;</text>
</g>
<!-- 6 -->
<g id="node7" class="node">
<title>6</title>
<ellipse fill="none" stroke="#000000" cx="34.2331" cy="-90.5112" rx="30.5947" ry="18"/>
<text text-anchor="middle" x="34.2331" y="-86.8112" font-family="Times,serif" font-size="14.00" fill="#000000">H | H</text>
</g>
<!-- 6&#45;&#45;1 -->
<g id="edge6" class="edge">
<title>6&#45;&#45;1</title>
<path fill="none" stroke="#000000" stroke-dasharray="5,2" d="M53.7768,-104.6779C62.8193,-111.2325 73.5276,-118.9946 82.5356,-125.5242"/>
<text text-anchor="middle" x="65.6562" y="-118.901" font-family="Times,serif" font-size="14.00" fill="#000000">&#45;</text>
</g>
<!-- 6&#45;&#45;3 -->
<g id="edge8" class="edge">
<title>6&#45;&#45;3</title>
<path fill="none" stroke="#000000" stroke-dasharray="1,5" d="M41.1252,-72.9583C45.5687,-61.6415 51.3267,-46.977 55.7771,-35.6426"/>
<text text-anchor="middle" x="45.9512" y="-58.1004" font-family="Times,serif" font-size="14.00" fill="#000000">&#45;</text>
</g>
<!-- 7 -->
<g id="node8" class="node">
<title>7</title>
<ellipse fill="none" stroke="#000000" cx="194.6636" cy="-18.2376" rx="30.5947" ry="18"/>
<text text-anchor="middle" x="194.6636" y="-14.5376" font-family="Times,serif" font-size="14.00" fill="#000000">H | H</text>
</g>
<!-- 7&#45;&#45;2 -->
<g id="edge7" class="edge">
<title>7&#45;&#45;2</title>
<path fill="none" stroke="#000000" d="M174.6561,-31.9311C166.8347,-37.2842 157.8882,-43.4073 150.0894,-48.745"/>
<text text-anchor="middle" x="152.3728" y="-29.138" font-family="Times,serif" font-size="14.00" fill="#000000">&#45; | &#45;</text>
</g>
</g>
</svg>
