<?xml version="1.0" encoding="UTF-8" standalone="no"?>
<!DOCTYPE svg PUBLIC "-//W3C//DTD SVG 1.1//EN"
 "http://www.w3.org/Graphics/SVG/1.1/DTD/svg11.dtd">
<!-- Generated by graphviz version 2.40.1 (20161225.0304)
 -->
<!-- Title: G Pages: 1 -->
<svg width="253pt" height="167pt"
 viewBox="0.00 0.00 252.93 167.06" xmlns="http://www.w3.org/2000/svg" xmlns:xlink="http://www.w3.org/1999/xlink">
<g id="graph0" class="graph" transform="scale(1 1) rotate(0) translate(4 163.0622)">
<title>G</title>
<polygon fill="#ffffff" stroke="transparent" points="-4,4 -4,-163.0622 248.9275,-163.0622 248.9275,4 -4,4"/>
<!-- 0 -->
<g id="node1" class="node">
<title>0</title>
<ellipse fill="none" stroke="#000000" cx="159.6356" cy="-106.9392" rx="30.5947" ry="18"/>
<text text-anchor="middle" x="159.6356" y="-103.2392" font-family="Times,serif" font-size="14.00" fill="#000000">O | O</text>
</g>
<!-- 1 -->
<g id="node2" class="node">
<title>1</title>
<ellipse fill="none" stroke="#000000" cx="148.328" cy="-29.5255" rx="29.4969" ry="18"/>
<text text-anchor="middle" x="148.328" y="-25.8255" font-family="Times,serif" font-size="14.00" fill="#000000">C | C</text>
</g>
<!-- 1&#45;&#45;0 -->
<g id="edge1" class="edge">
<title>1&#45;&#45;0</title>
<path fill="none" stroke="#000000" d="M150.9506,-47.4804C152.7644,-59.8974 155.169,-76.3597 156.9881,-88.8136"/>
<text text-anchor="middle" x="143.9693" y="-71.947" font-family="Times,serif" font-size="14.00" fill="#000000">&#45; | &#45;</text>
</g>
<!-- 2 -->
<g id="node3" class="node">
<title>2</title>
<ellipse fill="none" stroke="#000000" cx="70.6435" cy="-18" rx="29.4969" ry="18"/>
<text text-anchor="middle" x="70.6435" y="-14.3" font-family="Times,serif" font-size="14.00" fill="#000000">C | C</text>
</g>
<!-- 2&#45;&#45;1 -->
<g id="edge2" class="edge">
<title>2&#45;&#45;1</title>
<path fill="none" stroke="#000000" d="M99.1292,-22.2262C105.8845,-23.2285 113.0906,-24.2976 119.8457,-25.2998"/>
<text text-anchor="middle" x="109.4875" y="-12.563" font-family="Times,serif" font-size="14.00" fill="#000000">&#45; | =</text>
</g>
<!-- 3 -->
<g id="node4" class="node">
<title>3</title>
<ellipse fill="none" stroke="#000000" cx="30.5473" cy="-86.905" rx="30.5947" ry="18"/>
<text text-anchor="middle" x="30.5473" y="-83.205" font-family="Times,serif" font-size="14.00" fill="#000000">O | O</text>
</g>
<!-- 3&#45;&#45;2 -->
<g id="edge3" class="edge">
<title>3&#45;&#45;2</title>
<path fill="none" stroke="#000000" d="M40.4587,-69.8723C46.5811,-59.3511 54.4149,-45.8886 60.5676,-35.3154"/>
<text text-anchor="middle" x="38.5132" y="-56.3938" font-family="Times,serif" font-size="14.00" fill="#000000">= | &#45;</text>
</g>
<!-- 4 -->
<g id="node5" class="node">
<title>4</title>
<ellipse fill="none" stroke="#000000" cx="88.9906" cy="-141.0622" rx="30.5947" ry="18"/>
<text text-anchor="middle" x="88.9906" y="-137.3622" font-family="Times,serif" font-size="14.00" fill="#000000">H | H</text>
</g>
<!-- 4&#45;&#45;0 -->
<g id="edge4" class="edge">
<title>4&#45;&#45;0</title>
<path fill="none" stroke="#000000" stroke-dasharray="5,2" d="M112.9078,-129.5097C120.2731,-125.9521 128.3795,-122.0366 135.7431,-118.4798"/>
<text text-anchor="middle" x="121.8254" y="-127.7948" font-family="Times,serif" font-size="14.00" fill="#000000">&#45;</text>
</g>
<!-- 4&#45;&#45;3 -->
<g id="edge7" class="edge">
<title>4&#45;&#45;3</title>
<path fill="none" stroke="#000000" stroke-dasharray="1,5" d="M72.3994,-125.6878C64.4352,-118.3076 54.9209,-109.4911 46.9777,-102.1304"/>
<text text-anchor="middle" x="57.1885" y="-117.7091" font-family="Times,serif" font-size="14.00" fill="#000000">&#45;</text>
</g>
<!-- 5 -->
<g id="node6" class="node">
<title>5</title>
<ellipse fill="none" stroke="#000000" cx="214.3802" cy="-59.5641" rx="30.5947" ry="18"/>
<text text-anchor="middle" x="214.3802" y="-55.8641" font-family="Times,serif" font-size="14.00" fill="#000000">H | H</text>
</g>
<!-- 5&#45;&#45;0 -->
<g id="edge6" class="edge">
<title>5&#45;&#45;0</title>
<path fill="none" stroke="#000000" stroke-dasharray="1,5" d="M197.0587,-74.5538C190.6684,-80.0839 183.4293,-86.3485 177.0324,-91.8843"/>
<text text-anchor="middle" x="189.5455" y="-87.0191" font-family="Times,serif" font-size="14.00" fill="#000000">&#45;</text>
</g>
<!-- 5&#45;&#45;1 -->
<g id="edge5" class="edge">
<title>5&#45;&#45;1</title>
<path fill="none" stroke="#000000" stroke-dasharray="5,2" d="M190.1599,-48.5494C184.2689,-45.8703 177.9746,-43.0079 172.1044,-40.3383"/>
<text text-anchor="middle" x="181.1321" y="-33.2439" font-family="Times,serif" font-size="14.00" fill="#000000">&#45;</text>
</g>
</g>
</svg>
