<?xml version="1.0" encoding="UTF-8" standalone="no"?>
<!DOCTYPE svg PUBLIC "-//W3C//DTD SVG 1.1//EN"
 "http://www.w3.org/Graphics/SVG/1.1/DTD/svg11.dtd">
<!-- Generated by graphviz version 2.40.1 (20161225.0304)
 -->
<!-- Title: G Pages: 1 -->
<svg width="152pt" height="130pt"
 viewBox="0.00 0.00 152.43 130.01" xmlns="http://www.w3.org/2000/svg" xmlns:xlink="http://www.w3.org/1999/xlink">
<g id="graph0" class="graph" transform="scale(1 1) rotate(0) translate(4 126.0128)">
<title>G</title>
<polygon fill="#ffffff" stroke="transparent" points="-4,4 -4,-126.0128 148.431,-126.0128 148.431,4 -4,4"/>
<!-- 0 -->
<g id="node1" class="node">
<title>0</title>
<ellipse fill="none" stroke="#000000" cx="29.2474" cy="-54.6315" rx="29.4969" ry="18"/>
<text text-anchor="middle" x="29.2474" y="-50.9315" font-family="Times,serif" font-size="14.00" fill="#000000">C | C</text>
</g>
<!-- 3 -->
<g id="node4" class="node">
<title>3</title>
<ellipse fill="none" stroke="#000000" cx="65.8025" cy="-104.0128" rx="29.4969" ry="18"/>
<text text-anchor="middle" x="65.8025" y="-100.3128" font-family="Times,serif" font-size="14.00" fill="#000000">C | C</text>
</g>
<!-- 0&#45;&#45;3 -->
<g id="edge3" class="edge">
<title>0&#45;&#45;3</title>
<path fill="none" stroke="#000000" stroke-dasharray="1,5" d="M41.4197,-71.0748C45.3243,-76.3495 49.649,-82.1915 53.5587,-87.473"/>
<text text-anchor="middle" x="44.9892" y="-83.0739" font-family="Times,serif" font-size="14.00" fill="#000000">&#45;</text>
</g>
<!-- 1 -->
<g id="node2" class="node">
<title>1</title>
<ellipse fill="none" stroke="#000000" cx="115.1836" cy="-67.3525" rx="29.4969" ry="18"/>
<text text-anchor="middle" x="115.1836" y="-63.6525" font-family="Times,serif" font-size="14.00" fill="#000000">C | C</text>
</g>
<!-- 1&#45;&#45;0 -->
<g id="edge1" class="edge">
<title>1&#45;&#45;0</title>
<path fill="none" stroke="#000000" stroke-dasharray="5,2" d="M86.5681,-63.1166C77.2912,-61.7434 67.0058,-60.2208 57.738,-58.8489"/>
<text text-anchor="middle" x="67.653" y="-64.7828" font-family="Times,serif" font-size="14.00" fill="#000000">=</text>
</g>
<!-- 2 -->
<g id="node3" class="node">
<title>2</title>
<ellipse fill="none" stroke="#000000" cx="78.5388" cy="-18" rx="29.4969" ry="18"/>
<text text-anchor="middle" x="78.5388" y="-14.3" font-family="Times,serif" font-size="14.00" fill="#000000">C | C</text>
</g>
<!-- 1&#45;&#45;2 -->
<g id="edge6" class="edge">
<title>1&#45;&#45;2</title>
<path fill="none" stroke="#000000" stroke-dasharray="1,5" d="M102.9814,-50.9188C99.0672,-45.6472 94.732,-39.8086 90.8126,-34.5302"/>
<text text-anchor="middle" x="94.397" y="-46.5245" font-family="Times,serif" font-size="14.00" fill="#000000">&#45;</text>
</g>
<!-- 1&#45;&#45;3 -->
<g id="edge5" class="edge">
<title>1&#45;&#45;3</title>
<path fill="none" stroke="#000000" stroke-dasharray="1,5" d="M96.5147,-81.2122C92.5818,-84.132 88.4317,-87.213 84.4978,-90.1335"/>
<text text-anchor="middle" x="88.0062" y="-89.4729" font-family="Times,serif" font-size="14.00" fill="#000000">&#45;</text>
</g>
<!-- 2&#45;&#45;0 -->
<g id="edge4" class="edge">
<title>2&#45;&#45;0</title>
<path fill="none" stroke="#000000" stroke-dasharray="1,5" d="M59.6224,-32.0579C55.8215,-34.8826 51.8282,-37.8504 48.0318,-40.6717"/>
<text text-anchor="middle" x="51.3271" y="-25.1648" font-family="Times,serif" font-size="14.00" fill="#000000">&#45;</text>
</g>
<!-- 3&#45;&#45;2 -->
<g id="edge2" class="edge">
<title>3&#45;&#45;2</title>
<path fill="none" stroke="#000000" stroke-dasharray="5,2" d="M68.5035,-85.7717C70.6649,-71.175 73.6813,-50.8045 75.8416,-36.2148"/>
<text text-anchor="middle" x="76.6726" y="-64.7933" font-family="Times,serif" font-size="14.00" fill="#000000">=</text>
</g>
</g>
</svg>
