<?xml version="1.0" encoding="UTF-8" standalone="no"?>
<!DOCTYPE svg PUBLIC "-//W3C//DTD SVG 1.1//EN"
 "http://www.w3.org/Graphics/SVG/1.1/DTD/svg11.dtd">
<!-- Generated by graphviz version 2.40.1 (20161225.0304)
 -->
<!-- Title: G Pages: 1 -->
<svg width="330pt" height="305pt"
 viewBox="0.00 0.00 329.90 304.78" xmlns="http://www.w3.org/2000/svg" xmlns:xlink="http://www.w3.org/1999/xlink">
<g id="graph0" class="graph" transform="scale(1 1) rotate(0) translate(4 300.7789)">
<title>G</title>
<polygon fill="#ffffff" stroke="transparent" points="-4,4 -4,-300.7789 325.9035,-300.7789 325.9035,4 -4,4"/>
<!-- 0 -->
<g id="node1" class="node">
<title>0</title>
<ellipse fill="none" stroke="#000000" cx="111.9672" cy="-185.1583" rx="29.4969" ry="18"/>
<text text-anchor="middle" x="111.9672" y="-181.4583" font-family="Times,serif" font-size="14.00" fill="#000000">C | C</text>
</g>
<!-- 7 -->
<g id="node8" class="node">
<title>7</title>
<ellipse fill="none" stroke="#000000" cx="124.2673" cy="-99.4826" rx="29.4969" ry="18"/>
<text text-anchor="middle" x="124.2673" y="-95.7826" font-family="Times,serif" font-size="14.00" fill="#000000">C | C</text>
</g>
<!-- 0&#45;&#45;7 -->
<g id="edge12" class="edge">
<title>0&#45;&#45;7</title>
<path fill="none" stroke="#000000" stroke-dasharray="1,5" d="M114.5758,-166.9887C116.6631,-152.4492 119.5761,-132.1586 121.6625,-117.626"/>
<text text-anchor="middle" x="115.6191" y="-146.1074" font-family="Times,serif" font-size="14.00" fill="#000000">&#45;</text>
</g>
<!-- 1 -->
<g id="node2" class="node">
<title>1</title>
<ellipse fill="none" stroke="#000000" cx="197.6928" cy="-197.498" rx="29.4969" ry="18"/>
<text text-anchor="middle" x="197.6928" y="-193.798" font-family="Times,serif" font-size="14.00" fill="#000000">C | C</text>
</g>
<!-- 1&#45;&#45;0 -->
<g id="edge1" class="edge">
<title>1&#45;&#45;0</title>
<path fill="none" stroke="#000000" d="M169.1474,-193.3891C159.9907,-192.071 149.849,-190.6112 140.6803,-189.2914"/>
<text text-anchor="middle" x="154.9139" y="-180.1402" font-family="Times,serif" font-size="14.00" fill="#000000">= | &#45;</text>
</g>
<!-- 6 -->
<g id="node7" class="node">
<title>6</title>
<ellipse fill="none" stroke="#000000" cx="210.1068" cy="-111.8354" rx="29.4969" ry="18"/>
<text text-anchor="middle" x="210.1068" y="-108.1354" font-family="Times,serif" font-size="14.00" fill="#000000">C | C</text>
</g>
<!-- 1&#45;&#45;6 -->
<g id="edge11" class="edge">
<title>1&#45;&#45;6</title>
<path fill="none" stroke="#000000" stroke-dasharray="1,5" d="M200.3255,-179.3312C202.4322,-164.7939 205.3722,-144.5064 207.4779,-129.976"/>
<text text-anchor="middle" x="201.4017" y="-158.4536" font-family="Times,serif" font-size="14.00" fill="#000000">&#45;</text>
</g>
<!-- 2 -->
<g id="node3" class="node">
<title>2</title>
<ellipse fill="none" stroke="#000000" cx="30.5473" cy="-195.7995" rx="30.5947" ry="18"/>
<text text-anchor="middle" x="30.5473" y="-192.0995" font-family="Times,serif" font-size="14.00" fill="#000000">H | H</text>
</g>
<!-- 2&#45;&#45;0 -->
<g id="edge2" class="edge">
<title>2&#45;&#45;0</title>
<path fill="none" stroke="#000000" d="M60.4027,-191.8975C67.8459,-190.9247 75.8113,-189.8837 83.2008,-188.9179"/>
<text text-anchor="middle" x="71.8017" y="-179.2077" font-family="Times,serif" font-size="14.00" fill="#000000">&#45; | &#45;</text>
</g>
<!-- 3 -->
<g id="node4" class="node">
<title>3</title>
<ellipse fill="none" stroke="#000000" cx="77.9184" cy="-259.8506" rx="30.5947" ry="18"/>
<text text-anchor="middle" x="77.9184" y="-256.1506" font-family="Times,serif" font-size="14.00" fill="#000000">H | H</text>
</g>
<!-- 3&#45;&#45;0 -->
<g id="edge3" class="edge">
<title>3&#45;&#45;0</title>
<path fill="none" stroke="#000000" d="M85.9875,-242.1496C91.4152,-230.243 98.5405,-214.6122 103.9561,-202.7323"/>
<text text-anchor="middle" x="84.9718" y="-226.2409" font-family="Times,serif" font-size="14.00" fill="#000000">&#45; | &#45;</text>
</g>
<!-- 4 -->
<g id="node5" class="node">
<title>4</title>
<ellipse fill="none" stroke="#000000" cx="272.7632" cy="-230.7693" rx="30.5947" ry="18"/>
<text text-anchor="middle" x="272.7632" y="-227.0693" font-family="Times,serif" font-size="14.00" fill="#000000">H | H</text>
</g>
<!-- 4&#45;&#45;1 -->
<g id="edge4" class="edge">
<title>4&#45;&#45;1</title>
<path fill="none" stroke="#000000" d="M248.1823,-219.8751C239.6301,-216.0847 230.0552,-211.8411 221.5616,-208.0767"/>
<text text-anchor="middle" x="239.872" y="-202.7759" font-family="Times,serif" font-size="14.00" fill="#000000">&#45; | &#45;</text>
</g>
<!-- 5 -->
<g id="node6" class="node">
<title>5</title>
<ellipse fill="none" stroke="#000000" cx="209.2425" cy="-278.7789" rx="30.5947" ry="18"/>
<text text-anchor="middle" x="209.2425" y="-275.0789" font-family="Times,serif" font-size="14.00" fill="#000000">H | H</text>
</g>
<!-- 5&#45;&#45;1 -->
<g id="edge5" class="edge">
<title>5&#45;&#45;1</title>
<path fill="none" stroke="#000000" d="M206.6792,-260.74C204.7653,-247.2704 202.1611,-228.9439 200.2489,-215.4864"/>
<text text-anchor="middle" x="193.4641" y="-241.9132" font-family="Times,serif" font-size="14.00" fill="#000000">&#45; | &#45;</text>
</g>
<!-- 7&#45;&#45;6 -->
<g id="edge6" class="edge">
<title>7&#45;&#45;6</title>
<path fill="none" stroke="#000000" d="M152.8506,-103.5959C162.0195,-104.9154 172.1747,-106.3767 181.3556,-107.6979"/>
<text text-anchor="middle" x="167.1031" y="-94.4469" font-family="Times,serif" font-size="14.00" fill="#000000">= | &#45;</text>
</g>
<!-- 8 -->
<g id="node9" class="node">
<title>8</title>
<ellipse fill="none" stroke="#000000" cx="243.2555" cy="-36.6767" rx="30.5947" ry="18"/>
<text text-anchor="middle" x="243.2555" y="-32.9767" font-family="Times,serif" font-size="14.00" fill="#000000">H | H</text>
</g>
<!-- 8&#45;&#45;6 -->
<g id="edge7" class="edge">
<title>8&#45;&#45;6</title>
<path fill="none" stroke="#000000" d="M235.5672,-54.1085C230.2502,-66.1639 223.201,-82.1466 217.8682,-94.2377"/>
<text text-anchor="middle" x="216.7177" y="-77.9731" font-family="Times,serif" font-size="14.00" fill="#000000">&#45; | &#45;</text>
</g>
<!-- 9 -->
<g id="node10" class="node">
<title>9</title>
<ellipse fill="none" stroke="#000000" cx="291.3562" cy="-99.7387" rx="30.5947" ry="18"/>
<text text-anchor="middle" x="291.3562" y="-96.0387" font-family="Times,serif" font-size="14.00" fill="#000000">H | H</text>
</g>
<!-- 9&#45;&#45;6 -->
<g id="edge8" class="edge">
<title>9&#45;&#45;6</title>
<path fill="none" stroke="#000000" d="M261.5632,-104.1744C254.0451,-105.2937 245.993,-106.4925 238.5435,-107.6016"/>
<text text-anchor="middle" x="250.0534" y="-94.688" font-family="Times,serif" font-size="14.00" fill="#000000">&#45; | &#45;</text>
</g>
<!-- 10 -->
<g id="node11" class="node">
<title>10</title>
<ellipse fill="none" stroke="#000000" cx="113.8849" cy="-18" rx="30.5947" ry="18"/>
<text text-anchor="middle" x="113.8849" y="-14.3" font-family="Times,serif" font-size="14.00" fill="#000000">H | H</text>
</g>
<!-- 10&#45;&#45;7 -->
<g id="edge9" class="edge">
<title>10&#45;&#45;7</title>
<path fill="none" stroke="#000000" d="M116.1891,-36.0836C117.9096,-49.5867 120.2505,-67.9586 121.9695,-81.4495"/>
<text text-anchor="middle" x="109.0793" y="-62.5666" font-family="Times,serif" font-size="14.00" fill="#000000">&#45; | &#45;</text>
</g>
<!-- 11 -->
<g id="node12" class="node">
<title>11</title>
<ellipse fill="none" stroke="#000000" cx="49.8177" cy="-64.7291" rx="30.5947" ry="18"/>
<text text-anchor="middle" x="49.8177" y="-61.0291" font-family="Times,serif" font-size="14.00" fill="#000000">H | H</text>
</g>
<!-- 11&#45;&#45;7 -->
<g id="edge10" class="edge">
<title>11&#45;&#45;7</title>
<path fill="none" stroke="#000000" d="M73.7838,-75.9166C82.4554,-79.9646 92.2312,-84.528 100.8546,-88.5534"/>
<text text-anchor="middle" x="77.3192" y="-86.035" font-family="Times,serif" font-size="14.00" fill="#000000">&#45; | &#45;</text>
</g>
</g>
</svg>
