<?xml version="1.0" encoding="UTF-8" standalone="no"?>
<!DOCTYPE svg PUBLIC "-//W3C//DTD SVG 1.1//EN"
 "http://www.w3.org/Graphics/SVG/1.1/DTD/svg11.dtd">
<!-- Generated by graphviz version 2.40.1 (20161225.0304)
 -->
<!-- Title: G Pages: 1 -->
<svg width="298pt" height="297pt"
 viewBox="0.00 0.00 298.34 296.91" xmlns="http://www.w3.org/2000/svg" xmlns:xlink="http://www.w3.org/1999/xlink">
<g id="graph0" class="graph" transform="scale(1 1) rotate(0) translate(4 292.9052)">
<title>G</title>
<polygon fill="#ffffff" stroke="transparent" points="-4,4 -4,-292.9052 294.3411,-292.9052 294.3411,4 -4,4"/>
<!-- 0 -->
<g id="node1" class="node">
<title>0</title>
<ellipse fill="none" stroke="#000000" cx="104.3579" cy="-138.7204" rx="29.4969" ry="18"/>
<text text-anchor="middle" x="104.3579" y="-135.0204" font-family="Times,serif" font-size="14.00" fill="#000000">C | C</text>
</g>
<!-- 7 -->
<g id="node8" class="node">
<title>7</title>
<ellipse fill="none" stroke="#000000" cx="169.3685" cy="-148.9926" rx="29.4969" ry="18"/>
<text text-anchor="middle" x="169.3685" y="-145.2926" font-family="Times,serif" font-size="14.00" fill="#000000">C | C</text>
</g>
<!-- 0&#45;&#45;7 -->
<g id="edge11" class="edge">
<title>0&#45;&#45;7</title>
<path fill="none" stroke="#000000" stroke-dasharray="1,5" d="M133.0618,-143.2559C135.6469,-143.6643 138.2645,-144.0779 140.848,-144.4861"/>
<text text-anchor="middle" x="138.2049" y="-132.671" font-family="Times,serif" font-size="14.00" fill="#000000">&#45;</text>
</g>
<!-- 1 -->
<g id="node2" class="node">
<title>1</title>
<ellipse fill="none" stroke="#000000" cx="176.6298" cy="-187.4923" rx="29.4969" ry="18"/>
<text text-anchor="middle" x="176.6298" y="-183.7923" font-family="Times,serif" font-size="14.00" fill="#000000">C | C</text>
</g>
<!-- 1&#45;&#45;0 -->
<g id="edge1" class="edge">
<title>1&#45;&#45;0</title>
<path fill="none" stroke="#000000" stroke-dasharray="5,2" d="M156.8812,-174.1652C146.6835,-167.2834 134.2769,-158.9109 124.0827,-152.0314"/>
<text text-anchor="middle" x="135.9819" y="-166.8983" font-family="Times,serif" font-size="14.00" fill="#000000">=</text>
</g>
<!-- 6 -->
<g id="node7" class="node">
<title>6</title>
<ellipse fill="none" stroke="#000000" cx="163.2328" cy="-94.0727" rx="29.4969" ry="18"/>
<text text-anchor="middle" x="163.2328" y="-90.3727" font-family="Times,serif" font-size="14.00" fill="#000000">C | C</text>
</g>
<!-- 1&#45;&#45;6 -->
<g id="edge14" class="edge">
<title>1&#45;&#45;6</title>
<path fill="none" stroke="#000000" stroke-dasharray="1,5" d="M174.0467,-169.4801C171.6744,-152.9376 168.1778,-128.5547 165.808,-112.0297"/>
<text text-anchor="middle" x="167.4273" y="-129.5549" font-family="Times,serif" font-size="14.00" fill="#000000">&#45;</text>
</g>
<!-- 1&#45;&#45;7 -->
<g id="edge13" class="edge">
<title>1&#45;&#45;7</title>
<path fill="none" stroke="#000000" stroke-dasharray="1,5" d="M173.2542,-169.595C173.1061,-168.8095 172.9574,-168.021 172.8091,-167.2348"/>
<text text-anchor="middle" x="170.5317" y="-157.2149" font-family="Times,serif" font-size="14.00" fill="#000000">&#45;</text>
</g>
<!-- 2 -->
<g id="node3" class="node">
<title>2</title>
<ellipse fill="none" stroke="#000000" cx="38.6441" cy="-90.4487" rx="30.5947" ry="18"/>
<text text-anchor="middle" x="38.6441" y="-86.7487" font-family="Times,serif" font-size="14.00" fill="#000000">H | H</text>
</g>
<!-- 2&#45;&#45;0 -->
<g id="edge2" class="edge">
<title>2&#45;&#45;0</title>
<path fill="none" stroke="#000000" d="M58.005,-104.6707C66.6369,-111.0115 76.773,-118.4572 85.3618,-124.7663"/>
<text text-anchor="middle" x="61.6834" y="-118.5185" font-family="Times,serif" font-size="14.00" fill="#000000">&#45; | &#45;</text>
</g>
<!-- 3 -->
<g id="node4" class="node">
<title>3</title>
<ellipse fill="none" stroke="#000000" cx="30.5473" cy="-176.4023" rx="30.5947" ry="18"/>
<text text-anchor="middle" x="30.5473" y="-172.7023" font-family="Times,serif" font-size="14.00" fill="#000000">H | H</text>
</g>
<!-- 3&#45;&#45;0 -->
<g id="edge3" class="edge">
<title>3&#45;&#45;0</title>
<path fill="none" stroke="#000000" d="M53.9014,-164.4795C62.7707,-159.9515 72.8527,-154.8045 81.6604,-150.308"/>
<text text-anchor="middle" x="57.7809" y="-146.1937" font-family="Times,serif" font-size="14.00" fill="#000000">&#45; | &#45;</text>
</g>
<!-- 4 -->
<g id="node5" class="node">
<title>4</title>
<ellipse fill="none" stroke="#000000" cx="253.8449" cy="-222.15" rx="30.5947" ry="18"/>
<text text-anchor="middle" x="253.8449" y="-218.45" font-family="Times,serif" font-size="14.00" fill="#000000">H | H</text>
</g>
<!-- 4&#45;&#45;1 -->
<g id="edge4" class="edge">
<title>4&#45;&#45;1</title>
<path fill="none" stroke="#000000" d="M229.4135,-211.1841C220.1351,-207.0195 209.5882,-202.2856 200.3742,-198.1499"/>
<text text-anchor="middle" x="224.8939" y="-193.467" font-family="Times,serif" font-size="14.00" fill="#000000">&#45; | &#45;</text>
</g>
<!-- 5 -->
<g id="node6" class="node">
<title>5</title>
<ellipse fill="none" stroke="#000000" cx="177.0153" cy="-270.9052" rx="30.5947" ry="18"/>
<text text-anchor="middle" x="177.0153" y="-267.2052" font-family="Times,serif" font-size="14.00" fill="#000000">H | H</text>
</g>
<!-- 5&#45;&#45;1 -->
<g id="edge5" class="edge">
<title>5&#45;&#45;1</title>
<path fill="none" stroke="#000000" d="M176.9317,-252.8058C176.867,-238.8147 176.7779,-219.5386 176.7133,-205.5563"/>
<text text-anchor="middle" x="166.8225" y="-232.9811" font-family="Times,serif" font-size="14.00" fill="#000000">&#45; | &#45;</text>
</g>
<!-- 6&#45;&#45;0 -->
<g id="edge12" class="edge">
<title>6&#45;&#45;0</title>
<path fill="none" stroke="#000000" stroke-dasharray="1,5" d="M144.6045,-108.1996C137.732,-113.4113 129.9468,-119.3152 123.0672,-124.5323"/>
<text text-anchor="middle" x="131.3358" y="-105.1659" font-family="Times,serif" font-size="14.00" fill="#000000">&#45;</text>
</g>
<!-- 7&#45;&#45;6 -->
<g id="edge6" class="edge">
<title>7&#45;&#45;6</title>
<path fill="none" stroke="#000000" stroke-dasharray="5,2" d="M167.3595,-131.0098C166.6884,-125.0034 165.9404,-118.3076 165.2674,-112.284"/>
<text text-anchor="middle" x="161.8134" y="-110.4469" font-family="Times,serif" font-size="14.00" fill="#000000">=</text>
</g>
<!-- 8 -->
<g id="node9" class="node">
<title>8</title>
<ellipse fill="none" stroke="#000000" cx="135.7235" cy="-18" rx="30.5947" ry="18"/>
<text text-anchor="middle" x="135.7235" y="-14.3" font-family="Times,serif" font-size="14.00" fill="#000000">H | H</text>
</g>
<!-- 8&#45;&#45;6 -->
<g id="edge7" class="edge">
<title>8&#45;&#45;6</title>
<path fill="none" stroke="#000000" d="M142.1039,-35.6438C146.5163,-47.8458 152.3663,-64.0229 156.7918,-76.2611"/>
<text text-anchor="middle" x="139.4478" y="-59.7525" font-family="Times,serif" font-size="14.00" fill="#000000">&#45; | &#45;</text>
</g>
<!-- 9 -->
<g id="node10" class="node">
<title>9</title>
<ellipse fill="none" stroke="#000000" cx="222.3125" cy="-36.6452" rx="30.5947" ry="18"/>
<text text-anchor="middle" x="222.3125" y="-32.9452" font-family="Times,serif" font-size="14.00" fill="#000000">H | H</text>
</g>
<!-- 9&#45;&#45;6 -->
<g id="edge8" class="edge">
<title>9&#45;&#45;6</title>
<path fill="none" stroke="#000000" d="M206.1687,-52.3376C197.6958,-60.5735 187.3575,-70.6227 178.9487,-78.7964"/>
<text text-anchor="middle" x="202.5587" y="-69.367" font-family="Times,serif" font-size="14.00" fill="#000000">&#45; | &#45;</text>
</g>
<!-- 10 -->
<g id="node11" class="node">
<title>10</title>
<ellipse fill="none" stroke="#000000" cx="259.7938" cy="-135.5087" rx="30.5947" ry="18"/>
<text text-anchor="middle" x="259.7938" y="-131.8087" font-family="Times,serif" font-size="14.00" fill="#000000">H | H</text>
</g>
<!-- 10&#45;&#45;7 -->
<g id="edge9" class="edge">
<title>10&#45;&#45;7</title>
<path fill="none" stroke="#000000" d="M229.9345,-139.9612C219.6459,-141.4954 208.1536,-143.2091 197.968,-144.728"/>
<text text-anchor="middle" x="218.9513" y="-131.1446" font-family="Times,serif" font-size="14.00" fill="#000000">&#45; | &#45;</text>
</g>
<!-- 11 -->
<g id="node12" class="node">
<title>11</title>
<ellipse fill="none" stroke="#000000" cx="115.2479" cy="-230.9686" rx="30.5947" ry="18"/>
<text text-anchor="middle" x="115.2479" y="-227.2686" font-family="Times,serif" font-size="14.00" fill="#000000">H | H</text>
</g>
<!-- 11&#45;&#45;7 -->
<g id="edge10" class="edge">
<title>11&#45;&#45;7</title>
<path fill="none" stroke="#000000" d="M126.4618,-213.9832C135.8121,-199.8203 149.0599,-179.7539 158.3542,-165.6759"/>
<text text-anchor="middle" x="132.408" y="-193.6295" font-family="Times,serif" font-size="14.00" fill="#000000">&#45; | &#45;</text>
</g>
</g>
</svg>
