<?xml version="1.0" encoding="UTF-8" standalone="no"?>
<!DOCTYPE svg PUBLIC "-//W3C//DTD SVG 1.1//EN"
 "http://www.w3.org/Graphics/SVG/1.1/DTD/svg11.dtd">
<!-- Generated by graphviz version 2.40.1 (20161225.0304)
 -->
<!-- Title: G Pages: 1 -->
<svg width="160pt" height="134pt"
 viewBox="0.00 0.00 160.20 134.19" xmlns="http://www.w3.org/2000/svg" xmlns:xlink="http://www.w3.org/1999/xlink">
<g id="graph0" class="graph" transform="scale(1 1) rotate(0) translate(4 130.1935)">
<title>G</title>
<polygon fill="#ffffff" stroke="transparent" points="-4,4 -4,-130.1935 156.2031,-130.1935 156.2031,4 -4,4"/>
<!-- 0 -->
<g id="node1" class="node">
<title>0</title>
<ellipse fill="none" stroke="#000000" cx="29.2474" cy="-55.0385" rx="29.4969" ry="18"/>
<text text-anchor="middle" x="29.2474" y="-51.3385" font-family="Times,serif" font-size="14.00" fill="#000000">C | C</text>
</g>
<!-- 1 -->
<g id="node2" class="node">
<title>1</title>
<ellipse fill="none" stroke="#000000" cx="122.9557" cy="-57.2627" rx="29.4969" ry="18"/>
<text text-anchor="middle" x="122.9557" y="-53.5627" font-family="Times,serif" font-size="14.00" fill="#000000">C | C</text>
</g>
<!-- 1&#45;&#45;0 -->
<g id="edge1" class="edge">
<title>1&#45;&#45;0</title>
<path fill="none" stroke="#000000" d="M93.5629,-56.565C82.3985,-56.3 69.6906,-55.9984 58.5359,-55.7337"/>
<text text-anchor="middle" x="76.0494" y="-44.9493" font-family="Times,serif" font-size="14.00" fill="#000000">&#45; | =</text>
</g>
<!-- 2 -->
<g id="node3" class="node">
<title>2</title>
<ellipse fill="none" stroke="#000000" cx="79.6619" cy="-18" rx="30.5947" ry="18"/>
<text text-anchor="middle" x="79.6619" y="-14.3" font-family="Times,serif" font-size="14.00" fill="#000000">O | O</text>
</g>
<!-- 2&#45;&#45;1 -->
<g id="edge2" class="edge">
<title>2&#45;&#45;1</title>
<path fill="none" stroke="#000000" d="M96.7728,-33.5176C99.8926,-36.347 103.1441,-39.2958 106.252,-42.1143"/>
<text text-anchor="middle" x="113.5124" y="-26.616" font-family="Times,serif" font-size="14.00" fill="#000000">= | &#45;</text>
</g>
<!-- 3 -->
<g id="node4" class="node">
<title>3</title>
<ellipse fill="none" stroke="#000000" cx="52.9859" cy="-108.1935" rx="30.5947" ry="18"/>
<text text-anchor="middle" x="52.9859" y="-104.4935" font-family="Times,serif" font-size="14.00" fill="#000000">H | H</text>
</g>
<!-- 3&#45;&#45;0 -->
<g id="edge3" class="edge">
<title>3&#45;&#45;0</title>
<path fill="none" stroke="#000000" stroke-dasharray="5,2" d="M45.0813,-90.4936C42.4917,-84.6951 39.6177,-78.2596 37.0367,-72.4802"/>
<text text-anchor="middle" x="38.559" y="-85.2869" font-family="Times,serif" font-size="14.00" fill="#000000">&#45;</text>
</g>
<!-- 3&#45;&#45;2 -->
<g id="edge4" class="edge">
<title>3&#45;&#45;2</title>
<path fill="none" stroke="#000000" stroke-dasharray="1,5" d="M58.2562,-90.3742C62.9329,-74.562 69.7292,-51.5833 74.4026,-35.7823"/>
<text text-anchor="middle" x="63.8294" y="-66.8782" font-family="Times,serif" font-size="14.00" fill="#000000">&#45;</text>
</g>
</g>
</svg>
